<?xml version="1.0" encoding="utf-8"?>
<!-- Generator: Adobe Illustrator 24.1.2, SVG Export Plug-In . SVG Version: 6.00 Build 0)  -->
<svg version="1.1" id="Warstwa_3" xmlns="http://www.w3.org/2000/svg" xmlns:xlink="http://www.w3.org/1999/xlink" x="0px" y="0px"
	 viewBox="0 0 430 430" style="enable-background:new 0 0 430 430;" xml:space="preserve">
<style type="text/css">
	.st0{fill:#121331;}
	.st1{fill:#08A88A;}
	.st2{fill:none;stroke:#08A88A;stroke-width:12.95;stroke-linecap:round;stroke-linejoin:round;stroke-miterlimit:14.8;}
	.st3{fill:none;}
</style>
<g>
	<path class="st0" d="M374.07,360.23H55.93c-3.58,0-6.47-2.9-6.47-6.48V76.25c0-3.58,2.9-6.48,6.47-6.48s6.47,2.9,6.47,6.48v271.02
		h311.67c3.58,0,6.47,2.9,6.47,6.48S377.65,360.23,374.07,360.23z"/>
	<path class="st1" d="M112.78,299.66c-12.75,0-23.13-10.37-23.13-23.13c0-12.75,10.37-23.13,23.13-23.13s23.13,10.37,23.13,23.13
		C135.9,289.28,125.53,299.66,112.78,299.66z M112.78,266.36c-5.61,0-10.18,4.56-10.18,10.17c0,5.61,4.57,10.18,10.18,10.18
		s10.18-4.56,10.18-10.18C122.95,270.92,118.39,266.36,112.78,266.36z M256.6,241.38c-12.75,0-23.13-10.37-23.13-23.13
		c0-12.75,10.37-23.13,23.13-23.13s23.12,10.37,23.12,23.13C279.72,231.01,269.35,241.38,256.6,241.38z M256.6,208.08
		c-5.61,0-10.18,4.56-10.18,10.17c0,5.61,4.57,10.18,10.18,10.18s10.17-4.56,10.17-10.18C266.77,212.65,262.21,208.08,256.6,208.08z
		 M207.57,199.27c-12.75,0-23.13-10.37-23.13-23.13s10.37-23.13,23.13-23.13s23.13,10.37,23.13,23.13S220.32,199.27,207.57,199.27z
		 M207.57,165.98c-5.61,0-10.18,4.56-10.18,10.17s4.57,10.17,10.18,10.17s10.18-4.56,10.18-10.17S213.18,165.98,207.57,165.98z
		 M349.1,141.93c-12.75,0-23.13-10.37-23.13-23.13c0-12.75,10.37-23.13,23.13-23.13s23.12,10.37,23.12,23.13
		C372.22,131.55,361.85,141.93,349.1,141.93z M349.1,108.63c-5.61,0-10.18,4.56-10.18,10.17c0,5.61,4.57,10.18,10.18,10.18
		s10.17-4.56,10.17-10.18C359.27,113.19,354.71,108.63,349.1,108.63z"/>
	
		<rect x="105.36" y="217.54" transform="matrix(0.6783 -0.7348 0.7348 0.6783 -113.6027 188.5705)" class="st1" width="106.37" height="12.95"/>
	
		<rect x="226.07" y="180.85" transform="matrix(0.7426 -0.6698 0.6698 0.7426 -71.9003 206.3927)" class="st1" width="12.95" height="31.76"/>
	
		<rect x="251.69" y="162.27" transform="matrix(0.7025 -0.7117 0.7117 0.7025 -30.1367 265.4078)" class="st1" width="101.38" height="12.95"/>
</g>
</svg>
